<svg xmlns="http://www.w3.org/2000/svg" width="561" height="468" stroke="none" stroke-linecap="round" stroke-linejoin="round" fill="#fff" fill-rule="nonzero" xmlns:v="https://vecta.io/nano"><path d="M560 157.5c0 204.167-280 309.167-280 309.167S0 361.667 0 157.5C0 70.467 67.647 0 151.2 0 205.632 0 253.344 29.984 280 74.9 306.656 29.984 354.368 0 408.8 0 492.353 0 560 70.467 560 157.5" fill="#ffd0c8"/><path d="M560 157.493c0 204.173-280 309.173-280 309.173S167.747 424.573 85.387 341.853c276.827 81.747 377.28-81.32 377.28-203.187 0-94.347-67.16-123.08-99.267-131.427C377.733 2.533 392.987 0 408.8 0 492.347 0 560 70.467 560 157.493" fill="#ffa4b3"/><path d="M172.052 37.689C123.704 32.9 23.231 38.812 37.347 174.263c.547 5.257 7.881 6.055 9.569 1.047C58.955 139.573 91.928 71.639 173.033 47.301c5.159-1.548 4.379-9.081-.981-9.612" fill="#fff9ec"/></svg>